<svg id="Layer_2" enable-background="new 0 0 64 64" height="512" viewBox="0 0 64 64" width="512" xmlns="http://www.w3.org/2000/svg"><path d="m59 40.809v-19.809c0-1.657-1.343-3-3-3s-3 1.343-3 3v19.809c-1.792 1.038-3 2.971-3 5.191 0 3.314 2.686 6 6 6s6-2.686 6-6c0-2.22-1.208-4.153-3-5.191z" fill="#edeff1"/><circle cx="32" cy="32" fill="#80d6fb" r="20"/><path d="m57 42.141v-5.141c0-.552-.448-1-1-1s-1 .448-1 1v5.141c-1.722.446-3 1.997-3 3.859 0 2.209 1.791 4 4 4s4-1.791 4-4c0-1.862-1.278-3.413-3-3.859z" fill="#80d6fb"/><path d="m11 40.809v-19.809c0-1.657-1.343-3-3-3s-3 1.343-3 3v19.809c-1.792 1.038-3 2.971-3 5.191 0 3.314 2.686 6 6 6s6-2.686 6-6c0-2.22-1.208-4.153-3-5.191z" fill="#edeff1"/><path d="m9 42.141v-21.141c0-.552-.448-1-1-1s-1 .448-1 1v21.141c-1.722.446-3 1.997-3 3.859 0 2.209 1.791 4 4 4s4-1.791 4-4c0-1.862-1.278-3.413-3-3.859z" fill="#ffb0aa"/><g fill="#98ca69"><path d="m12 32c0 1.249.129 2.466.348 3.652l1.652-1.652 2 1h2v-6l4-1v-4l6-5v-6.598c-9.129 1.853-16 9.922-16 19.598z"/><path d="m40.699 14.012-.699 6.988 1 4-3 4-4 3v4l-3 1-1 4 3 1 3-2 2 3-5 2-4 1v3h5l10.831-1.666c4.38-3.669 7.169-9.174 7.169-15.334 0-7.923-4.619-14.75-11.301-17.988z"/><path d="m17 38h4l1 5 3 1v3h-2l-4-2z"/></g><path d="m23.886 5.254-1.247-2.744-4.639 6.49 7.94.773-1.221-2.687c6.92-2.071 14.429-1.08 20.762 2.768l1.039-1.709c-6.894-4.187-15.106-5.226-22.634-2.891z" fill="#6e83b7"/><path d="m46 55-7.94-.773 1.221 2.687c-6.92 2.07-14.43 1.08-20.762-2.768l-1.039 1.709c4.464 2.711 9.484 4.145 14.52 4.145 2.74 0 5.459-.442 8.108-1.268l1.253 2.758z" fill="#6e83b7"/></svg>